<svg width="36" height="35" viewBox="0 0 36 35" fill="none" xmlns="http://www.w3.org/2000/svg">
<path d="M35.1534 29.8411C35.1534 32.4999 32.9933 34.6542 30.3274 34.6542H5.23266C2.56778 34.6542 0.406738 32.4999 0.406738 29.8411V4.81309C0.406738 2.15434 2.56778 0 5.23266 0H30.3274C32.9933 0 35.1534 2.15434 35.1534 4.81309V29.8411Z" fill="#0288D1"/>
<path d="M6.19922 12.5132H11.0251V28.8777H6.19922V12.5132ZM8.5977 10.588H8.57068C7.13062 10.588 6.19922 9.51756 6.19922 8.18048C6.19922 6.81453 7.15958 5.7749 8.62569 5.7749C10.0937 5.7749 10.9981 6.81453 11.0251 8.18048C11.0251 9.51659 10.0937 10.588 8.5977 10.588ZM29.3636 28.8777H24.5377V20.1189C24.5377 18.003 23.3554 16.5591 21.4569 16.5591C20.0081 16.5591 19.2244 17.5333 18.8441 18.4747C18.7051 18.8116 18.7466 19.7434 18.7466 20.2142V28.8777H13.9207V12.5132H18.7466V15.0314C19.4425 13.9571 20.5322 12.5132 23.3197 12.5132C26.7731 12.5132 29.3627 14.6791 29.3627 19.5153L29.3636 28.8777Z" fill="white"/>
</svg>
