<svg width="36" height="35" viewBox="0 0 36 35" fill="none" xmlns="http://www.w3.org/2000/svg">
<rect x="0.309082" width="35.3906" height="34.6547" rx="8" fill="#FFF040"/>
<path d="M17.8708 7.70157C18.7733 7.70157 21.8335 7.94652 23.2765 11.0927C23.7588 12.1515 23.6439 13.9496 23.5491 15.3945L23.5464 15.4477C23.5354 15.6075 23.5263 15.7539 23.519 15.9004C23.5874 15.9403 23.7041 15.9802 23.8846 15.9802C24.158 15.966 24.4853 15.8737 24.8262 15.7131C24.9766 15.635 25.1398 15.6208 25.2492 15.6208C25.4151 15.6208 25.5765 15.6465 25.7132 15.7007C26.1234 15.8329 26.3823 16.1258 26.3823 16.4444C26.396 16.8429 26.0268 17.189 25.2765 17.481C25.1954 17.5068 25.086 17.5476 24.963 17.5866C24.5527 17.7064 23.9247 17.9061 23.7478 18.3055C23.6658 18.5043 23.6922 18.7706 23.8572 19.0759L23.8709 19.0892C23.9256 19.2099 25.262 22.1733 28.2383 22.6516C28.4707 22.6907 28.6348 22.8913 28.6211 23.1034C28.6211 23.1699 28.6075 23.2356 28.5801 23.3031C28.3613 23.8081 27.4197 24.1799 25.7123 24.4311C25.6585 24.5118 25.6029 24.7639 25.5628 24.937C25.5363 25.0958 25.4953 25.2565 25.4406 25.4278C25.3713 25.6683 25.1945 25.7872 24.9347 25.7872H24.9073C24.7843 25.7872 24.622 25.7597 24.4169 25.7215C24.0887 25.655 23.7196 25.6017 23.2565 25.6017C22.983 25.6017 22.7104 25.615 22.4242 25.6674C21.8772 25.7597 21.4005 26.0792 20.8535 26.4519C20.076 26.9836 19.189 27.595 17.8508 27.595C17.7961 27.595 17.7423 27.5817 17.6867 27.5817H17.5509C16.2127 27.5817 15.3384 26.9827 14.5618 26.4386C14.0157 26.0659 13.5526 25.7473 13.0057 25.6541C12.7195 25.6141 12.4323 25.5884 12.1597 25.5884C11.6675 25.5884 11.2865 25.6674 11.0002 25.7206C10.8079 25.7588 10.6438 25.7863 10.508 25.7863C10.167 25.7863 10.0312 25.5875 9.9765 25.4136C9.9209 25.2432 9.89446 25.0683 9.85344 24.9103C9.81151 24.7497 9.75772 24.4719 9.70212 24.4045C7.9537 24.2074 7.01294 23.8347 6.79507 23.3164C6.76681 23.2605 6.74767 23.1832 6.74494 23.1167C6.73126 22.901 6.89535 22.704 7.1278 22.6649C10.1032 22.1857 11.4396 19.2223 11.4952 19.0972L11.5098 19.0714C11.6739 18.7652 11.714 18.499 11.6183 18.3002C11.4405 17.915 10.8124 17.7162 10.404 17.5822C10.2937 17.5565 10.1853 17.5165 10.0886 17.4766C9.0795 17.0905 8.94277 16.6512 8.99746 16.3468C9.0795 15.9217 9.61187 15.643 10.0622 15.643C10.1953 15.643 10.3083 15.6687 10.4113 15.7087C10.7942 15.8808 11.1306 15.9749 11.4177 15.9749C11.631 15.9749 11.7678 15.9217 11.8416 15.8817L11.7997 15.3767C11.7103 13.9336 11.5946 12.1364 12.0795 11.0839C13.4825 7.95362 16.5335 7.714 17.4342 7.714L17.8161 7.70068H17.8708V7.70157Z" fill="white" stroke="black" stroke-width="0.923711"/>
</svg>
