<svg width="36" height="35" viewBox="0 0 36 35" fill="none" xmlns="http://www.w3.org/2000/svg">
<rect x="0.769531" width="35.0933" height="35" rx="8" fill="#313131"/>
<path fill-rule="evenodd" clip-rule="evenodd" d="M9.93829 27.2232C4.70828 22.6583 8.09084 12.4947 16.1313 13.7737V14.7148C9.34076 14.3971 6.35164 22.5445 9.93829 27.2232ZM24.6045 9.59203C25.4309 10.2561 26.5703 10.7456 28.1409 10.8406V11.7627C26.4028 11.4387 25.3004 10.5699 24.6045 9.59203ZM22.4242 4.7373C22.4227 5.0776 22.4669 5.44316 22.522 5.77706H19.3179V21.8299C19.3179 22.5697 19.2424 23.2287 19.0915 23.8069C17.785 26.7009 14.0893 26.3228 13.068 24.3362C14.5884 25.2944 17.0885 25.0395 18.1144 22.7666C18.2642 22.1896 18.3396 21.5294 18.3396 20.7895V4.7373H22.4242Z" fill="#00F7EF"/>
<path fill-rule="evenodd" clip-rule="evenodd" d="M23.4011 5.77734V5.79796C23.4011 6.16961 23.5105 11.5441 29.1166 11.8792C29.1166 16.8791 29.1192 11.8792 29.1192 16.0312C28.6981 16.0565 25.4284 15.8187 23.3939 13.9935L23.3875 22.0776C23.4377 25.7381 21.4119 29.3278 17.6191 30.0513C16.5566 30.2546 15.5999 30.2766 13.9938 29.9236C4.7418 27.1402 7.81637 13.3364 17.107 14.8129C17.107 19.2693 17.1096 14.8129 17.1096 19.2693C13.2704 18.7013 11.9876 21.9115 13.0074 24.2123C13.9358 26.3057 17.7571 26.7599 19.0902 23.8058C19.2412 23.2276 19.3167 22.5686 19.3165 21.8288V5.77734H23.4011Z" fill="white"/>
<path fill-rule="evenodd" clip-rule="evenodd" d="M16.1297 14.7151C16.4566 14.7293 16.7825 14.7623 17.1057 14.8138C17.1057 19.2701 17.1083 14.8138 17.1083 19.2701C13.269 18.7022 11.9862 21.9124 13.0061 24.2132C13.0248 24.255 13.045 24.2968 13.0664 24.3371C12.61 24.05 12.2428 23.6554 12.0292 23.1734C11.0105 20.8738 12.2931 17.6624 16.1311 18.2304C16.1311 14.1451 16.1297 17.5446 16.1297 14.7151ZM28.1381 11.7619C28.461 11.8208 28.7872 11.8596 29.1149 11.878C29.1149 16.8779 29.1175 11.878 29.1175 16.0301C28.6964 16.0553 25.4267 15.8175 23.3922 13.9924L23.3858 22.0764C23.4361 25.7369 21.4102 29.3266 17.6175 30.0502C16.5549 30.2534 15.5983 30.2755 13.9921 29.9224C12.1839 29.3786 10.8486 28.4126 9.93555 27.2221C10.749 27.9332 11.77 28.5087 13.0165 28.8844C14.622 29.2375 15.5789 29.2145 16.6415 29.0113C20.4342 28.2886 22.4601 24.6989 22.4122 21.0396L22.4162 12.9546C24.4507 14.7801 27.7204 15.0188 28.143 14.9923C28.143 11.1356 28.1392 15.1718 28.1392 11.7619H28.1381ZM23.3997 5.77734V5.79796C23.3997 6.01631 23.4387 7.95704 24.6028 9.59232C23.1996 8.46284 22.6991 6.83104 22.5204 5.77734H23.3997Z" fill="#FF004F"/>
</svg>
