<svg width="36" height="35" viewBox="0 0 36 35" fill="none" xmlns="http://www.w3.org/2000/svg">
<rect x="0.867676" width="34.6547" height="34.6547" rx="8" fill="#FF3D00"/>
<path d="M29.0397 12.4228C28.9167 11.9777 28.6741 11.5714 28.3362 11.2447C27.9983 10.918 27.5769 10.6823 27.1144 10.5612C25.4167 10.1211 18.6072 10.1211 18.6072 10.1211C18.6072 10.1211 11.7977 10.1211 10.0992 10.5612C9.6368 10.6825 9.2157 10.9183 8.87797 11.245C8.54025 11.5717 8.29775 11.9778 8.17472 12.4228C7.71924 14.0647 7.71924 17.4897 7.71924 17.4897C7.71924 17.4897 7.71924 20.9148 8.17472 22.5567C8.29774 23.0018 8.54035 23.4081 8.87826 23.7348C9.21616 24.0615 9.6375 24.2972 10.1001 24.4183C11.7977 24.8584 18.6072 24.8584 18.6072 24.8584C18.6072 24.8584 25.4167 24.8584 27.1153 24.4183C27.5779 24.2973 27.9993 24.0616 28.3372 23.7349C28.6751 23.4081 28.9177 23.0019 29.0406 22.5567C29.4952 20.9148 29.4952 17.4897 29.4952 17.4897C29.4952 17.4897 29.4952 14.0647 29.0397 12.4228ZM16.3797 20.5993V14.3802L22.0714 17.4897L16.3797 20.5993Z" fill="white"/>
</svg>
